<?xml version="1.0" encoding="UTF-8" standalone="no"?>
<!DOCTYPE svg PUBLIC "-//W3C//DTD SVG 1.1//EN"
 "http://www.w3.org/Graphics/SVG/1.1/DTD/svg11.dtd">
<!-- Generated by graphviz version 2.38.0 (20140413.2041)
 -->
<!-- Title: controllers_diagram Pages: 1 -->
<svg width="542pt" height="513pt"
 viewBox="0.00 0.00 541.82 513.00" xmlns="http://www.w3.org/2000/svg" xmlns:xlink="http://www.w3.org/1999/xlink">
<g id="graph0" class="graph" transform="scale(1 1) rotate(0) translate(227.714 285.5)">
<title>controllers_diagram</title>
<polygon fill="none" stroke="none" points="-227.714,227.5 -227.714,-285.5 314.107,-285.5 314.107,227.5 -227.714,227.5"/>
<!-- _diagram_info -->
<g id="node1" class="node"><title>_diagram_info</title>
<text text-anchor="start" x="88.3123" y="-123.1" font-family="Times,serif" font-size="13.00">Controllers diagram</text>
<text text-anchor="start" x="88.3123" y="-110.1" font-family="Times,serif" font-size="13.00">Date: Oct 28 2017 &#45; 07:46</text>
<text text-anchor="start" x="88.3123" y="-97.1" font-family="Times,serif" font-size="13.00">Migration version: 20171023155006</text>
<text text-anchor="start" x="88.3123" y="-84.1" font-family="Times,serif" font-size="13.00">Generated by RailRoady 1.5.1</text>
<text text-anchor="start" x="88.3123" y="-71.1" font-family="Times,serif" font-size="13.00">http://railroady.prestonlee.com</text>
</g>
<!-- ApplicationController -->
<g id="node2" class="node"><title>ApplicationController</title>
<path fill="none" stroke="black" d="M-83.8208,-129C-83.8208,-129 31.8208,-129 31.8208,-129 37.8208,-129 43.8208,-135 43.8208,-141 43.8208,-141 43.8208,-223 43.8208,-223 43.8208,-229 37.8208,-235 31.8208,-235 31.8208,-235 -83.8208,-235 -83.8208,-235 -89.8208,-235 -95.8208,-229 -95.8208,-223 -95.8208,-223 -95.8208,-141 -95.8208,-141 -95.8208,-135 -89.8208,-129 -83.8208,-129"/>
<text text-anchor="middle" x="-26" y="-219.8" font-family="Times,serif" font-size="14.00">ApplicationController</text>
<polyline fill="none" stroke="black" points="-95.8208,-213 43.8208,-213 "/>
<polyline fill="none" stroke="black" points="-95.8208,-189 43.8208,-189 "/>
<polyline fill="none" stroke="black" points="-95.8208,-165 43.8208,-165 "/>
<text text-anchor="start" x="-87.8208" y="-149.8" font-family="Times,serif" font-size="14.00">_layout</text>
<text text-anchor="start" x="-87.8208" y="-135.8" font-family="Times,serif" font-size="14.00">not_authenticated</text>
</g>
<!-- CommentsController -->
<g id="node3" class="node"><title>CommentsController</title>
<path fill="none" stroke="black" d="M187.893,-177C187.893,-177 298.107,-177 298.107,-177 304.107,-177 310.107,-183 310.107,-189 310.107,-189 310.107,-269 310.107,-269 310.107,-275 304.107,-281 298.107,-281 298.107,-281 187.893,-281 187.893,-281 181.893,-281 175.893,-275 175.893,-269 175.893,-269 175.893,-189 175.893,-189 175.893,-183 181.893,-177 187.893,-177"/>
<text text-anchor="middle" x="243" y="-265.8" font-family="Times,serif" font-size="14.00">CommentsController</text>
<polyline fill="none" stroke="black" points="175.893,-259 310.107,-259 "/>
<text text-anchor="start" x="183.893" y="-243.8" font-family="Times,serif" font-size="14.00">create</text>
<polyline fill="none" stroke="black" points="175.893,-237 310.107,-237 "/>
<polyline fill="none" stroke="black" points="175.893,-213 310.107,-213 "/>
<text text-anchor="start" x="183.893" y="-197.8" font-family="Times,serif" font-size="14.00">_layout</text>
<text text-anchor="start" x="183.893" y="-183.8" font-family="Times,serif" font-size="14.00">comment_params</text>
</g>
<!-- QuestionsController -->
<g id="node4" class="node"><title>QuestionsController</title>
<path fill="none" stroke="black" d="M-67.7725,111C-67.7725,111 37.7725,111 37.7725,111 43.7725,111 49.7725,105 49.7725,99 49.7725,99 49.7725,-79 49.7725,-79 49.7725,-85 43.7725,-91 37.7725,-91 37.7725,-91 -67.7725,-91 -67.7725,-91 -73.7725,-91 -79.7725,-85 -79.7725,-79 -79.7725,-79 -79.7725,99 -79.7725,99 -79.7725,105 -73.7725,111 -67.7725,111"/>
<text text-anchor="middle" x="-15" y="-75.8" font-family="Times,serif" font-size="14.00">QuestionsController</text>
<polyline fill="none" stroke="black" points="-79.7725,-69 49.7725,-69 "/>
<text text-anchor="start" x="-71.7725" y="-53.8" font-family="Times,serif" font-size="14.00">create</text>
<text text-anchor="start" x="-71.7725" y="-39.8" font-family="Times,serif" font-size="14.00">destroy</text>
<text text-anchor="start" x="-71.7725" y="-25.8" font-family="Times,serif" font-size="14.00">edit</text>
<text text-anchor="start" x="-71.7725" y="-11.8" font-family="Times,serif" font-size="14.00">index</text>
<text text-anchor="start" x="-71.7725" y="2.2" font-family="Times,serif" font-size="14.00">new</text>
<text text-anchor="start" x="-71.7725" y="16.2" font-family="Times,serif" font-size="14.00">show</text>
<text text-anchor="start" x="-71.7725" y="30.2" font-family="Times,serif" font-size="14.00">update</text>
<polyline fill="none" stroke="black" points="-79.7725,37 49.7725,37 "/>
<polyline fill="none" stroke="black" points="-79.7725,61 49.7725,61 "/>
<text text-anchor="start" x="-71.7725" y="76.2" font-family="Times,serif" font-size="14.00">_layout</text>
<text text-anchor="start" x="-71.7725" y="90.2" font-family="Times,serif" font-size="14.00">question_params</text>
<text text-anchor="start" x="-71.7725" y="104.2" font-family="Times,serif" font-size="14.00">set_question</text>
</g>
<!-- UsersController -->
<g id="node5" class="node"><title>UsersController</title>
<path fill="none" stroke="black" d="M-211.714,15C-211.714,15 -130.286,15 -130.286,15 -124.286,15 -118.286,9 -118.286,3 -118.286,3 -118.286,-91 -118.286,-91 -118.286,-97 -124.286,-103 -130.286,-103 -130.286,-103 -211.714,-103 -211.714,-103 -217.714,-103 -223.714,-97 -223.714,-91 -223.714,-91 -223.714,3 -223.714,3 -223.714,9 -217.714,15 -211.714,15"/>
<text text-anchor="middle" x="-171" y="-87.8" font-family="Times,serif" font-size="14.00">UsersController</text>
<polyline fill="none" stroke="black" points="-223.714,-81 -118.286,-81 "/>
<text text-anchor="start" x="-215.714" y="-65.8" font-family="Times,serif" font-size="14.00">create</text>
<text text-anchor="start" x="-215.714" y="-51.8" font-family="Times,serif" font-size="14.00">new</text>
<polyline fill="none" stroke="black" points="-223.714,-45 -118.286,-45 "/>
<polyline fill="none" stroke="black" points="-223.714,-21 -118.286,-21 "/>
<text text-anchor="start" x="-215.714" y="-5.8" font-family="Times,serif" font-size="14.00">_layout</text>
<text text-anchor="start" x="-215.714" y="8.2" font-family="Times,serif" font-size="14.00">user_params</text>
</g>
<!-- SessionsController -->
<g id="node6" class="node"><title>SessionsController</title>
<path fill="none" stroke="black" d="M92.1104,223C92.1104,223 189.89,223 189.89,223 195.89,223 201.89,217 201.89,211 201.89,211 201.89,117 201.89,117 201.89,111 195.89,105 189.89,105 189.89,105 92.1104,105 92.1104,105 86.1104,105 80.1104,111 80.1104,117 80.1104,117 80.1104,211 80.1104,211 80.1104,217 86.1104,223 92.1104,223"/>
<text text-anchor="middle" x="141" y="120.2" font-family="Times,serif" font-size="14.00">SessionsController</text>
<polyline fill="none" stroke="black" points="80.1104,127 201.89,127 "/>
<text text-anchor="start" x="88.1104" y="142.2" font-family="Times,serif" font-size="14.00">create</text>
<text text-anchor="start" x="88.1104" y="156.2" font-family="Times,serif" font-size="14.00">destroy</text>
<text text-anchor="start" x="88.1104" y="170.2" font-family="Times,serif" font-size="14.00">new</text>
<polyline fill="none" stroke="black" points="80.1104,177 201.89,177 "/>
<polyline fill="none" stroke="black" points="80.1104,201 201.89,201 "/>
<text text-anchor="start" x="88.1104" y="216.2" font-family="Times,serif" font-size="14.00">_layout</text>
</g>
<!-- Questions::CommentsController -->
<g id="node7" class="node"><title>Questions::CommentsController</title>
<path fill="none" stroke="black" d="M92.0034,79C92.0034,79 265.997,79 265.997,79 271.997,79 277.997,73 277.997,67 277.997,67 277.997,-15 277.997,-15 277.997,-21 271.997,-27 265.997,-27 265.997,-27 92.0034,-27 92.0034,-27 86.0034,-27 80.0034,-21 80.0034,-15 80.0034,-15 80.0034,67 80.0034,67 80.0034,73 86.0034,79 92.0034,79"/>
<text text-anchor="middle" x="179" y="-11.8" font-family="Times,serif" font-size="14.00">Questions::CommentsController</text>
<polyline fill="none" stroke="black" points="80.0034,-5 277.997,-5 "/>
<polyline fill="none" stroke="black" points="80.0034,19 277.997,19 "/>
<polyline fill="none" stroke="black" points="80.0034,43 277.997,43 "/>
<text text-anchor="start" x="88.0034" y="58.2" font-family="Times,serif" font-size="14.00">_layout</text>
<text text-anchor="start" x="88.0034" y="72.2" font-family="Times,serif" font-size="14.00">set_commentable</text>
</g>
</g>
</svg>
