<?xml version="1.0" encoding="UTF-8" standalone="no"?>
<!DOCTYPE svg PUBLIC "-//W3C//DTD SVG 1.1//EN"
 "http://www.w3.org/Graphics/SVG/1.1/DTD/svg11.dtd">
<!-- Generated by graphviz version 2.38.0 (20140413.2041)
 -->
<!-- Title: models_diagram Pages: 1 -->
<svg width="573pt" height="441pt"
 viewBox="0.00 0.00 573.08 441.00" xmlns="http://www.w3.org/2000/svg" xmlns:xlink="http://www.w3.org/1999/xlink">
<g id="graph0" class="graph" transform="scale(1 1) rotate(0) translate(4 437)">
<title>models_diagram</title>
<polygon fill="none" stroke="none" points="-4,4 -4,-437 569.083,-437 569.083,4 -4,4"/>
<!-- _diagram_info -->
<g id="node1" class="node"><title>_diagram_info</title>
<text text-anchor="start" x="8" y="-397.6" font-family="Times,serif" font-size="13.00">Models diagram</text>
<text text-anchor="start" x="8" y="-384.6" font-family="Times,serif" font-size="13.00">Date: Oct 28 2017 &#45; 07:46</text>
<text text-anchor="start" x="8" y="-371.6" font-family="Times,serif" font-size="13.00">Migration version: 20171023155006</text>
<text text-anchor="start" x="8" y="-358.6" font-family="Times,serif" font-size="13.00">Generated by RailRoady 1.5.1</text>
<text text-anchor="start" x="8" y="-345.6" font-family="Times,serif" font-size="13.00">http://railroady.prestonlee.com</text>
</g>
<!-- Question -->
<g id="node2" class="node"><title>Question</title>
<path fill="none" stroke="black" d="M189.182,-166.5C189.182,-166.5 298.193,-166.5 298.193,-166.5 304.193,-166.5 310.193,-172.5 310.193,-178.5 310.193,-178.5 310.193,-268.5 310.193,-268.5 310.193,-274.5 304.193,-280.5 298.193,-280.5 298.193,-280.5 189.182,-280.5 189.182,-280.5 183.182,-280.5 177.182,-274.5 177.182,-268.5 177.182,-268.5 177.182,-178.5 177.182,-178.5 177.182,-172.5 183.182,-166.5 189.182,-166.5"/>
<text text-anchor="middle" x="243.688" y="-265.3" font-family="Times,serif" font-size="14.00">Question</text>
<polyline fill="none" stroke="black" points="177.182,-258.5 310.193,-258.5 "/>
<text text-anchor="start" x="185.182" y="-243.3" font-family="Times,serif" font-size="14.00">id :INTEGER</text>
<text text-anchor="start" x="185.182" y="-229.3" font-family="Times,serif" font-size="14.00">title :varchar</text>
<text text-anchor="start" x="185.182" y="-215.3" font-family="Times,serif" font-size="14.00">description :text</text>
<text text-anchor="start" x="185.182" y="-201.3" font-family="Times,serif" font-size="14.00">user_id :integer</text>
<text text-anchor="start" x="185.182" y="-187.3" font-family="Times,serif" font-size="14.00">created_at :datetime</text>
<text text-anchor="start" x="185.182" y="-173.3" font-family="Times,serif" font-size="14.00">updated_at :datetime</text>
</g>
<!-- Comment -->
<g id="node3" class="node"><title>Comment</title>
<path fill="none" stroke="black" d="M234.751,-0.5C234.751,-0.5 382.624,-0.5 382.624,-0.5 388.624,-0.5 394.624,-6.5 394.624,-12.5 394.624,-12.5 394.624,-116.5 394.624,-116.5 394.624,-122.5 388.624,-128.5 382.624,-128.5 382.624,-128.5 234.751,-128.5 234.751,-128.5 228.751,-128.5 222.751,-122.5 222.751,-116.5 222.751,-116.5 222.751,-12.5 222.751,-12.5 222.751,-6.5 228.751,-0.5 234.751,-0.5"/>
<text text-anchor="middle" x="308.688" y="-113.3" font-family="Times,serif" font-size="14.00">Comment</text>
<polyline fill="none" stroke="black" points="222.751,-106.5 394.624,-106.5 "/>
<text text-anchor="start" x="230.751" y="-91.3" font-family="Times,serif" font-size="14.00">id :INTEGER</text>
<text text-anchor="start" x="230.751" y="-77.3" font-family="Times,serif" font-size="14.00">commentable_type :varchar</text>
<text text-anchor="start" x="230.751" y="-63.3" font-family="Times,serif" font-size="14.00">commentable_id :integer</text>
<text text-anchor="start" x="230.751" y="-49.3" font-family="Times,serif" font-size="14.00">created_at :datetime</text>
<text text-anchor="start" x="230.751" y="-35.3" font-family="Times,serif" font-size="14.00">updated_at :datetime</text>
<text text-anchor="start" x="230.751" y="-21.3" font-family="Times,serif" font-size="14.00">user_id :integer</text>
<text text-anchor="start" x="230.751" y="-7.3" font-family="Times,serif" font-size="14.00">body :varchar</text>
</g>
<!-- Question&#45;&gt;Comment -->
<g id="edge1" class="edge"><title>Question&#45;&gt;Comment</title>
<path fill="none" stroke="#f9f9d2" d="M270.092,-158.724C272.926,-151.879 275.824,-144.878 278.696,-137.942"/>
<ellipse fill="none" stroke="#f9f9d2" cx="268.501" cy="-162.567" rx="4.00002" ry="4.00002"/>
<polygon fill="#f9f9d2" stroke="#f9f9d2" points="278.762,-137.782 286.745,-130.264 280.675,-133.162 282.587,-128.542 282.587,-128.542 282.587,-128.542 280.675,-133.162 278.43,-126.821 278.762,-137.782 278.762,-137.782"/>
</g>
<!-- Comment&#45;&gt;Comment -->
<g id="edge2" class="edge"><title>Comment&#45;&gt;Comment</title>
<path fill="none" stroke="#4b14f3" d="M402.475,-75.5636C408.79,-73.0101 412.624,-69.3222 412.624,-64.5 412.624,-60.1908 409.563,-56.7874 404.405,-54.2898"/>
<ellipse fill="none" stroke="#4b14f3" cx="398.544" cy="-76.7413" rx="4.00001" ry="4.00001"/>
<polygon fill="#4b14f3" stroke="#4b14f3" points="404.214,-54.2275 396.115,-46.8348 399.463,-52.6691 394.712,-51.1107 394.712,-51.1107 394.712,-51.1107 399.463,-52.6691 393.31,-55.3865 404.214,-54.2275 404.214,-54.2275"/>
<text text-anchor="middle" x="431.283" y="-60.3" font-family="Times,serif" font-size="14.00">replies</text>
</g>
<!-- ApplicationRecord -->
<g id="node4" class="node"><title>ApplicationRecord</title>
<ellipse fill="none" stroke="black" cx="487.688" cy="-375.5" rx="77.2916" ry="18"/>
<text text-anchor="middle" x="487.688" y="-371.3" font-family="Times,serif" font-size="14.00">ApplicationRecord</text>
</g>
<!-- User -->
<g id="node5" class="node"><title>User</title>
<path fill="none" stroke="black" d="M237.079,-318.5C237.079,-318.5 380.297,-318.5 380.297,-318.5 386.297,-318.5 392.297,-324.5 392.297,-330.5 392.297,-330.5 392.297,-420.5 392.297,-420.5 392.297,-426.5 386.297,-432.5 380.297,-432.5 380.297,-432.5 237.079,-432.5 237.079,-432.5 231.079,-432.5 225.079,-426.5 225.079,-420.5 225.079,-420.5 225.079,-330.5 225.079,-330.5 225.079,-324.5 231.079,-318.5 237.079,-318.5"/>
<text text-anchor="middle" x="308.688" y="-417.3" font-family="Times,serif" font-size="14.00">User</text>
<polyline fill="none" stroke="black" points="225.079,-410.5 392.297,-410.5 "/>
<text text-anchor="start" x="233.079" y="-395.3" font-family="Times,serif" font-size="14.00">id :INTEGER</text>
<text text-anchor="start" x="233.079" y="-381.3" font-family="Times,serif" font-size="14.00">email :varchar</text>
<text text-anchor="start" x="233.079" y="-367.3" font-family="Times,serif" font-size="14.00">crypted_password :varchar</text>
<text text-anchor="start" x="233.079" y="-353.3" font-family="Times,serif" font-size="14.00">salt :varchar</text>
<text text-anchor="start" x="233.079" y="-339.3" font-family="Times,serif" font-size="14.00">created_at :datetime</text>
<text text-anchor="start" x="233.079" y="-325.3" font-family="Times,serif" font-size="14.00">updated_at :datetime</text>
</g>
<!-- User&#45;&gt;Question -->
<g id="edge3" class="edge"><title>User&#45;&gt;Question</title>
<path fill="none" stroke="#ba7c8b" d="M281.017,-310.645C278.041,-303.777 275.01,-296.782 272.026,-289.897"/>
<ellipse fill="none" stroke="#ba7c8b" cx="282.709" cy="-314.549" rx="4.00002" ry="4.00002"/>
<polygon fill="#ba7c8b" stroke="#ba7c8b" points="271.973,-289.773 272.126,-278.809 269.985,-285.186 267.997,-280.598 267.997,-280.598 267.997,-280.598 269.985,-285.186 263.868,-282.387 271.973,-289.773 271.973,-289.773"/>
</g>
<!-- User&#45;&gt;Comment -->
<g id="edge4" class="edge"><title>User&#45;&gt;Comment</title>
<path fill="none" stroke="#90b2a8" d="M317.264,-310.112C318.271,-300.374 319.135,-290.433 319.688,-281 322.679,-229.976 322.472,-217.035 319.688,-166 319.208,-157.214 318.495,-148.014 317.657,-138.901"/>
<ellipse fill="none" stroke="#90b2a8" cx="316.817" cy="-314.252" rx="4" ry="4"/>
<polygon fill="#90b2a8" stroke="#90b2a8" points="317.631,-138.628 321.144,-128.24 317.148,-133.651 316.665,-128.675 316.665,-128.675 316.665,-128.675 317.148,-133.651 312.186,-129.109 317.631,-138.628 317.631,-138.628"/>
</g>
</g>
</svg>
