<?xml version="1.0" encoding="UTF-8" standalone="no"?>
<!DOCTYPE svg PUBLIC "-//W3C//DTD SVG 1.1//EN"
 "http://www.w3.org/Graphics/SVG/1.1/DTD/svg11.dtd">
<!-- Generated by graphviz version 2.38.0 (20140413.2041)
 -->
<!-- Title: models_diagram Pages: 1 -->
<svg width="460pt" height="227pt"
 viewBox="0.00 0.00 460.08 227.00" xmlns="http://www.w3.org/2000/svg" xmlns:xlink="http://www.w3.org/1999/xlink">
<g id="graph0" class="graph" transform="scale(1 1) rotate(0) translate(4 223)">
<title>models_diagram</title>
<polygon fill="none" stroke="none" points="-4,4 -4,-223 456.083,-223 456.083,4 -4,4"/>
<!-- _diagram_info -->
<g id="node1" class="node"><title>_diagram_info</title>
<text text-anchor="start" x="8" y="-204.6" font-family="Times,serif" font-size="13.00">Models diagram</text>
<text text-anchor="start" x="8" y="-191.6" font-family="Times,serif" font-size="13.00">Date: Oct 28 2017 &#45; 07:46</text>
<text text-anchor="start" x="8" y="-178.6" font-family="Times,serif" font-size="13.00">Migration version: 20171023155006</text>
<text text-anchor="start" x="8" y="-165.6" font-family="Times,serif" font-size="13.00">Generated by RailRoady 1.5.1</text>
<text text-anchor="start" x="8" y="-152.6" font-family="Times,serif" font-size="13.00">http://railroady.prestonlee.com</text>
</g>
<!-- Question -->
<g id="node2" class="node"><title>Question</title>
<ellipse fill="none" stroke="black" cx="205.688" cy="-91" rx="42.0784" ry="18"/>
<text text-anchor="middle" x="205.688" y="-86.8" font-family="Times,serif" font-size="14.00">Question</text>
</g>
<!-- Comment -->
<g id="node3" class="node"><title>Comment</title>
<ellipse fill="none" stroke="black" cx="251.688" cy="-18" rx="44.9768" ry="18"/>
<text text-anchor="middle" x="251.688" y="-13.8" font-family="Times,serif" font-size="14.00">Comment</text>
</g>
<!-- Question&#45;&gt;Comment -->
<g id="edge1" class="edge"><title>Question&#45;&gt;Comment</title>
<path fill="none" stroke="#d7a465" d="M220.885,-66.5432C225.452,-59.4939 230.485,-51.7259 235.135,-44.5483"/>
<ellipse fill="none" stroke="#d7a465" cx="218.532" cy="-70.1757" rx="4.00002" ry="4.00002"/>
<polygon fill="#d7a465" stroke="#d7a465" points="235.32,-44.2636 244.534,-38.3179 238.038,-40.0673 240.757,-35.871 240.757,-35.871 240.757,-35.871 238.038,-40.0673 236.981,-33.4242 235.32,-44.2636 235.32,-44.2636"/>
</g>
<!-- Comment&#45;&gt;Comment -->
<g id="edge2" class="edge"><title>Comment&#45;&gt;Comment</title>
<path fill="none" stroke="#bd2cb6" d="M301.843,-24.1551C309.486,-23.2158 314.676,-21.1641 314.676,-18 314.676,-15.0996 310.315,-13.1339 303.701,-12.1029"/>
<ellipse fill="none" stroke="#bd2cb6" cx="297.474" cy="-24.4522" rx="4" ry="4"/>
<polygon fill="#bd2cb6" stroke="#bd2cb6" points="303.451,-12.0828 293.846,-6.79102 298.467,-11.6796 293.483,-11.2764 293.483,-11.2764 293.483,-11.2764 298.467,-11.6796 293.12,-15.7617 303.451,-12.0828 303.451,-12.0828"/>
<text text-anchor="middle" x="333.335" y="-13.8" font-family="Times,serif" font-size="14.00">replies</text>
</g>
<!-- ApplicationRecord -->
<g id="node4" class="node"><title>ApplicationRecord</title>
<ellipse fill="none" stroke="black" cx="374.688" cy="-182.5" rx="77.2916" ry="18"/>
<text text-anchor="middle" x="374.688" y="-178.3" font-family="Times,serif" font-size="14.00">ApplicationRecord</text>
</g>
<!-- User -->
<g id="node5" class="node"><title>User</title>
<ellipse fill="none" stroke="black" cx="252.688" cy="-182.5" rx="27" ry="18"/>
<text text-anchor="middle" x="252.688" y="-178.3" font-family="Times,serif" font-size="14.00">User</text>
</g>
<!-- User&#45;&gt;Question -->
<g id="edge3" class="edge"><title>User&#45;&gt;Question</title>
<path fill="none" stroke="#61e77c" d="M240.279,-157.87C233.789,-145.512 225.836,-130.367 219.192,-117.715"/>
<ellipse fill="none" stroke="#61e77c" cx="242.207" cy="-161.543" rx="4.00002" ry="4.00002"/>
<polygon fill="#61e77c" stroke="#61e77c" points="219.062,-117.468 218.397,-106.522 216.737,-113.041 214.413,-108.615 214.413,-108.615 214.413,-108.615 216.737,-113.041 210.429,-110.707 219.062,-117.468 219.062,-117.468"/>
</g>
<!-- User&#45;&gt;Comment -->
<g id="edge4" class="edge"><title>User&#45;&gt;Comment</title>
<path fill="none" stroke="#d556f8" d="M254.819,-156.047C256.374,-134.056 258.001,-101.425 256.688,-73 256.284,-64.2709 255.516,-54.7734 254.701,-46.2121"/>
<ellipse fill="none" stroke="#d556f8" cx="254.507" cy="-160.219" rx="4" ry="4"/>
<polygon fill="#d556f8" stroke="#d556f8" points="254.674,-45.9458 258.144,-35.5433 254.171,-40.9712 253.667,-35.9966 253.667,-35.9966 253.667,-35.9966 254.171,-40.9712 249.19,-36.4499 254.674,-45.9458 254.674,-45.9458"/>
</g>
</g>
</svg>
